<?xml version="1.0" standalone="no"?>
<!DOCTYPE svg PUBLIC "-//W3C//DTD SVG 20010904//EN"
 "http://www.w3.org/TR/2001/REC-SVG-20010904/DTD/svg10.dtd">
<svg version="1.0" xmlns="http://www.w3.org/2000/svg"
 width="512.000000pt" height="512.000000pt" viewBox="0 0 512.000000 512.000000"
 preserveAspectRatio="xMidYMid meet">
<metadata>
Created by potrace 1.14, written by Peter Selinger 2001-2017
</metadata>
<g transform="translate(0.000000,512.000000) scale(0.100000,-0.100000)"
fill="#000000" stroke="none">
<path d="M258 3209 c-96 -14 -189 -85 -231 -177 -21 -45 -22 -60 -24 -453 -3
-439 -2 -454 50 -536 33 -53 107 -107 167 -125 35 -10 244 -12 955 -13 l911 0
67 33 c70 35 114 79 148 149 27 55 28 64 28 294 l1 197 54 55 c64 67 140 117
176 117 36 0 110 -49 176 -116 l54 -56 1 -196 c1 -230 2 -241 35 -309 30 -62
79 -107 154 -142 l55 -25 885 -1 c487 0 908 3 936 6 101 13 184 73 230 166
l29 58 2 410 c2 372 1 415 -16 462 -26 77 -80 136 -158 175 l-66 32 -896 1
c-493 0 -914 -3 -936 -7 -22 -5 -45 -10 -50 -11 -28 -7 -106 -60 -131 -89 -29
-35 -61 -100 -68 -139 -3 -13 -5 -58 -5 -101 l-1 -76 -65 43 c-120 81 -218 80
-338 -4 l-57 -40 -1 77 c-1 42 -1 80 0 84 0 4 -8 32 -19 61 -27 72 -91 139
-165 174 l-60 27 -890 1 c-490 0 -911 -3 -937 -6z m1855 -172 c71 -54 70 -48
70 -467 0 -261 -4 -386 -12 -411 -14 -42 -54 -82 -96 -96 -19 -7 -356 -10
-917 -10 -886 0 -886 0 -924 21 -21 12 -49 37 -61 55 -26 38 -25 35 -24 564 1
187 5 257 15 281 15 35 67 81 101 88 11 3 423 4 916 4 l896 -1 36 -28z m2739
22 c50 -13 94 -52 108 -96 16 -48 16 -758 0 -807 -6 -18 -21 -43 -33 -54 -55
-52 -25 -50 -988 -49 l-896 2 -37 29 c-68 51 -69 56 -69 482 0 331 3 384 17
412 18 34 70 78 101 84 44 9 1761 6 1797 -3z"/>
</g>
</svg>
